<mxfile host="Electron" modified="2024-01-29T19:21:12.758Z" agent="Mozilla/5.0 (Windows NT 10.0; Win64; x64) AppleWebKit/537.36 (KHTML, like Gecko) draw.io/22.0.3 Chrome/114.0.5735.289 Electron/25.8.4 Safari/537.36" version="22.0.3" etag="Lh7_dVd-ReEQ82GKD8H1" type="device">
  <diagram id="lN_t09WJoDMvqpIvtv02" name="Page-1">
    <mxGraphModel dx="1276" dy="606" grid="1" gridSize="10" guides="1" tooltips="1" connect="1" arrows="1" fold="1" page="1" pageScale="1" pageWidth="850" pageHeight="1100" math="0" shadow="0">
      <root>
        <mxCell id="0" />
        <mxCell id="1" parent="0" />
        <mxCell id="IbUqRm2YkzwlwxHxELcE-1" style="edgeStyle=orthogonalEdgeStyle;rounded=0;orthogonalLoop=1;jettySize=auto;html=1;entryX=0;entryY=0.5;entryDx=0;entryDy=0;" edge="1" parent="1" source="IbUqRm2YkzwlwxHxELcE-2" target="IbUqRm2YkzwlwxHxELcE-9">
          <mxGeometry relative="1" as="geometry" />
        </mxCell>
        <mxCell id="IbUqRm2YkzwlwxHxELcE-2" value="3.1&lt;br&gt;Data fetching" style="ellipse;whiteSpace=wrap;html=1;aspect=fixed;" vertex="1" parent="1">
          <mxGeometry x="195" y="200" width="80" height="80" as="geometry" />
        </mxCell>
        <mxCell id="IbUqRm2YkzwlwxHxELcE-3" value="" style="shape=partialRectangle;whiteSpace=wrap;html=1;bottom=0;right=0;fillColor=none;" vertex="1" parent="1">
          <mxGeometry x="180" y="110.32000000000005" width="100" height="39.68" as="geometry" />
        </mxCell>
        <mxCell id="IbUqRm2YkzwlwxHxELcE-4" value="" style="endArrow=none;html=1;rounded=0;exitX=0;exitY=1;exitDx=0;exitDy=0;entryX=1;entryY=1;entryDx=0;entryDy=0;" edge="1" parent="1" source="IbUqRm2YkzwlwxHxELcE-3" target="IbUqRm2YkzwlwxHxELcE-3">
          <mxGeometry width="50" height="50" relative="1" as="geometry">
            <mxPoint x="454" y="100.31999999999994" as="sourcePoint" />
            <mxPoint x="504" y="50.31999999999999" as="targetPoint" />
          </mxGeometry>
        </mxCell>
        <mxCell id="IbUqRm2YkzwlwxHxELcE-5" value="" style="endArrow=none;html=1;rounded=0;exitX=0.126;exitY=0.042;exitDx=0;exitDy=0;exitPerimeter=0;" edge="1" parent="1">
          <mxGeometry width="50" height="50" relative="1" as="geometry">
            <mxPoint x="189.12" y="110" as="sourcePoint" />
            <mxPoint x="189" y="149.31999999999994" as="targetPoint" />
          </mxGeometry>
        </mxCell>
        <mxCell id="IbUqRm2YkzwlwxHxELcE-6" style="edgeStyle=orthogonalEdgeStyle;rounded=0;orthogonalLoop=1;jettySize=auto;html=1;entryX=0.5;entryY=0;entryDx=0;entryDy=0;" edge="1" parent="1" source="IbUqRm2YkzwlwxHxELcE-7" target="IbUqRm2YkzwlwxHxELcE-2">
          <mxGeometry relative="1" as="geometry" />
        </mxCell>
        <mxCell id="IbUqRm2YkzwlwxHxELcE-7" value="F-OS News and Headlines" style="text;html=1;strokeColor=none;fillColor=none;align=center;verticalAlign=middle;whiteSpace=wrap;rounded=0;" vertex="1" parent="1">
          <mxGeometry x="190" y="110.32000000000005" width="90" height="39.68" as="geometry" />
        </mxCell>
        <mxCell id="IbUqRm2YkzwlwxHxELcE-8" style="edgeStyle=orthogonalEdgeStyle;rounded=0;orthogonalLoop=1;jettySize=auto;html=1;" edge="1" parent="1" source="IbUqRm2YkzwlwxHxELcE-9" target="IbUqRm2YkzwlwxHxELcE-10">
          <mxGeometry relative="1" as="geometry" />
        </mxCell>
        <mxCell id="IbUqRm2YkzwlwxHxELcE-9" value="3.2&lt;br&gt;Data filtration" style="ellipse;whiteSpace=wrap;html=1;aspect=fixed;" vertex="1" parent="1">
          <mxGeometry x="345" y="200" width="80" height="80" as="geometry" />
        </mxCell>
        <mxCell id="IbUqRm2YkzwlwxHxELcE-10" value="3.3&amp;nbsp;&lt;br&gt;Headline generation" style="ellipse;whiteSpace=wrap;html=1;aspect=fixed;" vertex="1" parent="1">
          <mxGeometry x="480" y="200" width="80" height="80" as="geometry" />
        </mxCell>
        <mxCell id="IbUqRm2YkzwlwxHxELcE-11" value="Relevant Data" style="text;html=1;strokeColor=none;fillColor=none;align=center;verticalAlign=middle;whiteSpace=wrap;rounded=0;" vertex="1" parent="1">
          <mxGeometry x="280" y="210" width="60" height="30" as="geometry" />
        </mxCell>
        <mxCell id="IbUqRm2YkzwlwxHxELcE-12" value="Filtered Data" style="text;html=1;strokeColor=none;fillColor=none;align=center;verticalAlign=middle;whiteSpace=wrap;rounded=0;" vertex="1" parent="1">
          <mxGeometry x="420" y="210" width="60" height="30" as="geometry" />
        </mxCell>
      </root>
    </mxGraphModel>
  </diagram>
</mxfile>
